<?xml version="1.0" encoding="UTF-8"?>
<svg version="1.1" xmlns="http://www.w3.org/2000/svg" width="223" height="232">
<path d="M0 0 C73.59 0 147.18 0 223 0 C223 76.56 223 153.12 223 232 C149.41 232 75.82 232 0 232 C0 155.44 0 78.88 0 0 Z " fill="#151E22" transform="translate(0,0)"/>
<path d="M0 0 C73.59 0 147.18 0 223 0 C223 76.56 223 153.12 223 232 C149.41 232 75.82 232 0 232 C0 155.44 0 78.88 0 0 Z M100 29 C100 29.66 100 30.32 100 31 C98.51693359 31.14888672 98.51693359 31.14888672 97.00390625 31.30078125 C92.67206756 31.92396568 88.9339007 33.45715678 84.9375 35.1875 C84.19653076 35.49993652 83.45556152 35.81237305 82.69213867 36.13427734 C79.20932818 37.60712808 75.74025141 39.11104947 72.2734375 40.62109375 C64.27655476 44.09603715 56.24302024 47.16881068 48 50 C48 50.66 48 51.32 48 52 C47.17113281 52.103125 46.34226562 52.20625 45.48828125 52.3125 C41.47213673 53.10403576 37.95655025 54.44090019 34.1875 56 C33.1675293 56.40992188 33.1675293 56.40992188 32.12695312 56.828125 C28.81887771 58.01177754 28.81887771 58.01177754 26 60 C25.90415002 61.54353131 25.8781193 63.09145108 25.87974548 64.63795471 C25.87837082 65.64061371 25.87699615 66.64327271 25.87557983 67.67631531 C25.87917511 68.78545792 25.88277039 69.89460052 25.88647461 71.03735352 C25.88632858 72.19817444 25.88618256 73.35899536 25.8860321 74.55499268 C25.88673183 78.41298252 25.89452702 82.27092478 25.90234375 86.12890625 C25.90420772 88.79548728 25.90568088 91.46206564 25.90663147 94.12864685 C25.90974452 100.4432888 25.91795756 106.75791351 25.92798096 113.07254785 C25.9391429 120.25985633 25.94465275 127.44716561 25.94967639 134.6344806 C25.9601402 149.42299589 25.97773914 164.21149765 26 179 C27.60149886 179.67305018 29.20631029 180.33822227 30.8125 181 C32.15248047 181.556875 32.15248047 181.556875 33.51953125 182.125 C36.0331433 183.16633237 36.0331433 183.16633237 39 183 C39 183.66 39 184.32 39 185 C40.9570868 185.67031719 42.91571113 186.33614683 44.875 187 C46.51082031 187.556875 46.51082031 187.556875 48.1796875 188.125 C50.82620854 189.098772 50.82620854 189.098772 53 189 C53 189.66 53 190.32 53 191 C54.43554025 191.50559908 55.8735202 192.0042749 57.3125 192.5 C58.11300781 192.7784375 58.91351563 193.056875 59.73828125 193.34375 C62.08769422 194.13933107 62.08769422 194.13933107 65 194 C65 194.66 65 195.32 65 196 C66.45706726 196.50367757 67.91570096 197.00282556 69.375 197.5 C70.18710938 197.7784375 70.99921875 198.056875 71.8359375 198.34375 C73.94209242 199.09673305 73.94209242 199.09673305 76 199 C76 199.66 76 200.32 76 201 C84.40386703 204.3824693 92.8169793 207.72338842 101.29296875 210.921875 C104 212 104 212 106.140625 213.16015625 C109.94507431 214.87855247 114.21369495 213.26210168 118 212 C118 211.34 118 210.68 118 210 C119.7015625 209.62875 119.7015625 209.62875 121.4375 209.25 C124.52415567 208.47968574 127.3141819 207.49678925 130.203125 206.16796875 C134.87345527 204.05072673 139.58339132 202.04438844 144.3125 200.0625 C145.13991699 199.71477539 145.96733398 199.36705078 146.81982422 199.00878906 C151.4169995 197.07813678 156.01910202 195.15976258 160.625 193.25 C164.61643658 191.59057678 168.57492977 189.87384552 172.515625 188.09765625 C174.47579137 187.2316079 176.4469715 186.39048803 178.421875 185.55859375 C179.03240723 185.30134521 179.64293945 185.04409668 180.27197266 184.77905273 C182.03678061 184.03708934 183.80349864 183.29967404 185.5703125 182.5625 C189.15585138 180.92899709 192.57903158 178.9548391 196 177 C196 138.39 196 99.78 196 60 C187.78933203 56.21046094 179.84343493 52.65196492 171.375 49.625 C169.92673828 49.09326172 169.92673828 49.09326172 168.44921875 48.55078125 C163.35159881 46.61986576 163.35159881 46.61986576 158 46 C158 45.34 158 44.68 158 44 C145.85534669 38.49078989 145.85534669 38.49078989 133 36 C133 35.34 133 34.68 133 34 C132.21496094 33.74605469 131.42992187 33.49210937 130.62109375 33.23046875 C121.01005521 30.08182177 121.01005521 30.08182177 117.25 28.25 C111.23081168 25.93492757 105.99347066 26.60261174 100 29 Z " fill="#948854" transform="translate(0,0)"/>
<path d="M0 0 C73.59 0 147.18 0 223 0 C223 76.56 223 153.12 223 232 C149.41 232 75.82 232 0 232 C0 155.44 0 78.88 0 0 Z M10 19 C10 19.66 10 20.32 10 21 C9.34 21 8.68 21 8 21 C5.45688397 27.44117205 4.54064593 33.09687094 4.49707031 39.99511719 C4.47974602 40.96059731 4.46242172 41.92607742 4.44457245 42.92081451 C4.39128278 46.1294674 4.35926272 49.33793613 4.328125 52.546875 C4.29599733 54.84870531 4.26303801 57.15052414 4.22930908 59.45233154 C4.12666195 66.96803628 4.0595588 74.48384457 4 82 C3.9895163 83.28137848 3.97903259 84.56275696 3.9682312 85.88296509 C3.84092625 101.90946678 3.77357781 117.93549094 3.76259613 133.96245575 C3.76166296 135.31985983 3.76071945 136.6772639 3.75976562 138.03466797 C3.75929686 138.70799683 3.7588281 139.38132569 3.75834513 140.07505846 C3.75323312 145.65567979 3.73291487 151.23618356 3.7101047 156.81675649 C3.6858922 162.96031497 3.67816451 169.10379456 3.67642975 175.24739838 C3.6734203 177.81976134 3.66545017 180.39212382 3.65224457 182.96445465 C3.6352068 186.51844817 3.63705192 190.07195891 3.64355469 193.62597656 C3.6343399 194.66566086 3.62512512 195.70534515 3.6156311 196.77653503 C3.66561004 205.48864126 5.44402653 212.00954357 11.45703125 218.52734375 C17.04191137 223.857723 22.77565618 224.12397096 30.19784546 224.13371277 C31.2687777 224.1371111 31.2687777 224.1371111 32.36134493 224.14057809 C34.74791188 224.14689598 37.13442172 224.14609015 39.52099609 224.14526367 C41.23449273 224.14825653 42.94798869 224.15165936 44.66148376 224.15544128 C49.31233942 224.1642723 53.96317667 224.16661901 58.6140399 224.16725707 C61.52058446 224.16796805 64.42712435 224.17010328 67.33366776 224.17275429 C77.47602892 224.18200453 87.61837694 224.18608955 97.76074219 224.18530273 C107.2111665 224.18470193 116.66153373 224.19525509 126.1119436 224.2110464 C134.22928682 224.2241263 142.34661139 224.22948645 150.46396506 224.22884732 C155.31047359 224.22859248 160.15693139 224.23143618 165.00342941 224.24202538 C169.56213833 224.25171398 174.12074809 224.25178029 178.67946053 224.24450874 C180.35036044 224.24346387 182.02126655 224.24582001 183.69215584 224.2518692 C185.97761571 224.25960595 188.26273454 224.25493336 190.54818726 224.24723816 C191.82575079 224.24778293 193.10331432 224.24832769 194.4195919 224.24888897 C201.46295752 223.75927551 206.81520193 221.68304342 212 217 C216.74591016 211.00516612 217.12401479 206.20115567 217.13371277 198.71949768 C217.1371111 197.63525643 217.1371111 197.63525643 217.14057809 196.52911133 C217.14689668 194.11257154 217.14609011 191.69608814 217.14526367 189.27954102 C217.14825646 187.54471769 217.15165927 185.80989503 217.15544128 184.07507324 C217.16427236 179.36643538 217.166619 174.65781569 217.16725707 169.94917035 C217.16796797 167.00712155 217.17010303 164.06507736 217.17275429 161.12302971 C217.18200409 150.85862815 217.18608955 140.59423957 217.18530273 130.32983398 C217.18470173 120.76237441 217.19525896 111.19497118 217.2110464 101.62752587 C217.22412038 93.41168533 217.2294867 85.19586322 217.22884732 76.98001236 C217.22859234 72.07373221 217.23144418 67.16750216 217.24202538 62.26123238 C217.25170418 57.64753495 217.25178702 53.03393555 217.24450874 48.42023468 C217.2434627 46.7279515 217.24582698 45.03566223 217.2518692 43.34338951 C217.2595892 41.0313064 217.25494441 38.71956181 217.24723816 36.40748596 C217.24778293 35.11425195 217.24832769 33.82101793 217.24888897 32.48859501 C217.0000751 29.00105271 216.26020826 26.24736843 215 23 C214.34 23 213.68 23 213 23 C212.814375 22.278125 212.62875 21.55625 212.4375 20.8125 C210.33189825 16.6928444 206.7538184 13.91460996 202.32857895 12.44488049 C199.15819947 11.83917203 196.11951598 11.87050142 192.89117432 11.86628723 C191.81645673 11.8628889 191.81645673 11.8628889 190.72002769 11.85942191 C188.31886926 11.85309114 185.91776741 11.85391069 183.51660156 11.85473633 C181.79502286 11.85174421 180.07344482 11.84834156 178.35186768 11.84455872 C173.67402704 11.83571862 168.99620469 11.83338056 164.31835651 11.83274293 C161.39489107 11.83203229 158.47143029 11.82989767 155.547966 11.82724571 C145.34610194 11.81799139 135.14425094 11.81391083 124.94238281 11.81469727 C115.43803583 11.81529769 105.93374568 11.80475303 96.42941308 11.7889536 C88.26621492 11.775868 80.1030353 11.77051382 71.93982673 11.77115268 C67.06588479 11.77140742 62.19199331 11.76856956 57.31806183 11.75797462 C52.73145688 11.74827681 48.14495045 11.74822602 43.55834198 11.75549126 C41.87818762 11.75653509 40.19802707 11.75418618 38.5178833 11.7481308 C36.21739412 11.74037905 33.9172425 11.74507652 31.61676025 11.75276184 C29.6887879 11.75194469 29.6887879 11.75194469 27.72186661 11.75111103 C20.4077249 12.24022292 15.21720951 13.78279049 10 19 Z " fill="#151E21" transform="translate(0,0)"/>
<path d="M0 0 C2.475 0.495 2.475 0.495 5 1 C5 1.66 5 2.32 5 3 C6.07507812 3.18175781 6.07507812 3.18175781 7.171875 3.3671875 C10.06628174 4.014831 12.5286011 4.95091076 15.25 6.125 C19.64058519 7.99737564 24.03889915 9.84347182 28.45678711 11.65014648 C34.23548934 14.01361483 39.99600755 16.39700243 45.6875 18.96484375 C48.84304668 20.37737732 52.01355424 21.75447941 55.1875 23.125 C56.33605469 23.62257813 57.48460937 24.12015625 58.66796875 24.6328125 C61.72741374 25.88815335 64.86272795 26.95424265 68 28 C68 61.66 68 95.32 68 130 C66.35 129.34 64.7 128.68 63 128 C61.56423276 127.45375697 60.12685806 126.91170979 58.6875 126.375 C57.470625 125.92125 56.25375 125.4675 55 125 C55 124.34 55 123.68 55 123 C54.38511719 122.86722656 53.77023438 122.73445313 53.13671875 122.59765625 C52.32847656 122.42105469 51.52023438 122.24445313 50.6875 122.0625 C49.88699219 121.88847656 49.08648437 121.71445313 48.26171875 121.53515625 C46 121 46 121 43 120 C43 119.34 43 118.68 43 118 C42.360625 117.896875 41.72125 117.79375 41.0625 117.6875 C36.93522674 116.76096927 32.99357051 115.38339371 29 114 C29 113.34 29 112.68 29 112 C27.6696875 111.814375 27.6696875 111.814375 26.3125 111.625 C23.29612498 111.05587264 20.79673946 110.23385564 18 109 C18 108.34 18 107.68 18 107 C17.175 106.896875 16.35 106.79375 15.5 106.6875 C11.40710988 105.88353944 7.87459775 104.53647842 4 103 C4 102.34 4 101.68 4 101 C2.68 100.67 1.36 100.34 0 100 C0 67 0 34 0 0 Z " fill="#928653" transform="translate(37,71)"/>
<path d="M0 0 C3.51617149 1.40168719 7.01216853 2.84166997 10.5 4.3125 C14.84479199 6.13261556 19.21403484 7.84719154 23.625 9.5 C28.50640055 11.35680069 33.13843727 13.46664992 37.7734375 15.8671875 C40.79053844 17.40220377 43.87606411 18.69836005 47 20 C47.66 20.33 48.32 20.66 49 21 C49 26.61 49 32.22 49 38 C43.555 36.515 43.555 36.515 38 35 C38 34.34 38 33.68 38 33 C37.360625 32.9175 36.72125 32.835 36.0625 32.75 C31.79458483 31.70479628 27.96892333 29.85908174 24 28 C24 27.34 24 26.68 24 26 C23.11957031 26.42152344 22.23914063 26.84304687 21.33203125 27.27734375 C20.17058594 27.82519531 19.00914063 28.37304688 17.8125 28.9375 C16.66394531 29.48277344 15.51539063 30.02804688 14.33203125 30.58984375 C11.48533264 31.79460131 9.03972155 32.54776271 6 33 C6 33.66 6 34.32 6 35 C4.68 35 3.36 35 2 35 C2 35.66 2 36.32 2 37 C2.804375 37.0825 3.60875 37.165 4.4375 37.25 C8.98267315 38.20687856 12.81559742 40.02384791 17 42 C24.4150733 45.4580467 31.89918936 48.59926245 39.51953125 51.5703125 C42.77001775 52.90552918 45.88051943 54.38532246 49 56 C49 59.3 49 62.6 49 66 C42.81839396 65.46246904 37.673142 63.45417612 32 61 C32 60.34 32 59.68 32 59 C30.741875 58.773125 29.48375 58.54625 28.1875 58.3125 C22.37760897 57.04505562 17.34421952 54.57063724 12 52 C12 57.61 12 63.22 12 69 C14.31 69.33 16.62 69.66 19 70 C19 70.66 19 71.32 19 72 C20.19625 72.28875 21.3925 72.5775 22.625 72.875 C26.14726836 73.7524334 29.57201821 74.80020637 33 76 C33 76.66 33 77.32 33 78 C35.97 78.66 38.94 79.32 42 80 C42 80.66 42 81.32 42 82 C42.763125 82.144375 43.52625 82.28875 44.3125 82.4375 C47 83 47 83 50 84 C50 87.63 50 91.26 50 95 C47.03 94.34 44.06 93.68 41 93 C41 92.34 41 91.68 41 91 C39.8553125 90.9071875 39.8553125 90.9071875 38.6875 90.8125 C33.4234845 89.65263218 28.85210278 87.30372947 24 85 C17.92672446 82.23282497 11.78594101 79.65734558 5.6015625 77.1484375 C3 76 3 76 0 74 C-0.36076355 70.95016479 -0.36076355 70.95016479 -0.34057617 66.97998047 C-0.34101425 66.25792419 -0.34145233 65.53586792 -0.34190369 64.79193115 C-0.33980999 62.40007692 -0.31645257 60.0089196 -0.29296875 57.6171875 C-0.28737484 55.96095157 -0.28310377 54.30471068 -0.28010559 52.64846802 C-0.26864063 48.2852004 -0.23915948 43.92223148 -0.20599365 39.55908203 C-0.17532818 35.10843955 -0.16160781 30.65774889 -0.14648438 26.20703125 C-0.11429116 17.47121696 -0.06307515 8.73564561 0 0 Z " fill="#161F22" transform="translate(46,92)"/>
<path d="M0 0 C0.86625 0.36351562 1.7325 0.72703125 2.625 1.1015625 C3.553125 1.50117187 4.48125 1.90078125 5.4375 2.3125 C12.37238885 5.25621584 19.25226362 8.03717515 26.4375 10.3125 C26.4375 10.9725 26.4375 11.6325 26.4375 12.3125 C18.18124217 16.18761456 9.88917793 19.88211307 1.4375 23.3125 C0.5609375 23.68890625 -0.315625 24.0653125 -1.21875 24.453125 C-3.5625 25.3125 -3.5625 25.3125 -6.5625 25.3125 C-6.5625 25.9725 -6.5625 26.6325 -6.5625 27.3125 C-8.33108691 27.98510351 -10.10246016 28.65038395 -11.875 29.3125 C-12.86113281 29.68375 -13.84726563 30.055 -14.86328125 30.4375 C-17.5625 31.3125 -17.5625 31.3125 -20.5625 31.3125 C-20.5625 31.9725 -20.5625 32.6325 -20.5625 33.3125 C-21.48933594 33.66183594 -22.41617188 34.01117188 -23.37109375 34.37109375 C-24.56863281 34.82613281 -25.76617187 35.28117187 -27 35.75 C-28.19496094 36.20246094 -29.38992187 36.65492187 -30.62109375 37.12109375 C-33.40695723 38.0269826 -33.40695723 38.0269826 -34.5625 39.3125 C-38.05984228 38.92390641 -41.22038261 38.42653913 -44.5625 37.3125 C-44.5625 36.6525 -44.5625 35.9925 -44.5625 35.3125 C-45.119375 35.21453125 -45.67625 35.1165625 -46.25 35.015625 C-51.14029004 34.05739249 -55.18306712 32.68686334 -59.56640625 30.33203125 C-62.79043561 28.68531567 -66.15607817 27.52907923 -69.5625 26.3125 C-69.5625 25.6525 -69.5625 24.9925 -69.5625 24.3125 C-66.5925 23.6525 -63.6225 22.9925 -60.5625 22.3125 C-60.5625 21.6525 -60.5625 20.9925 -60.5625 20.3125 C-56.56612208 18.63704259 -52.56518172 16.97283683 -48.5625 15.3125 C-47.59957031 14.90902344 -46.63664062 14.50554687 -45.64453125 14.08984375 C-44.77183594 13.73019531 -43.89914063 13.37054688 -43 13 C-42.21496094 12.67386719 -41.42992188 12.34773438 -40.62109375 12.01171875 C-38.5625 11.3125 -38.5625 11.3125 -35.5625 11.3125 C-35.5625 10.6525 -35.5625 9.9925 -35.5625 9.3125 C-34.77488281 9.02117188 -33.98726562 8.72984375 -33.17578125 8.4296875 C-26.06551148 5.75387 -19.24831342 2.82908491 -12.4375 -0.55078125 C-7.73374217 -2.41055507 -4.56842654 -1.95568852 0 0 Z " fill="#938853" transform="translate(147.5625,51.6875)"/>
<path d="M0 0 C0 0.66 0 1.32 0 2 C1.670625 2.2165625 1.670625 2.2165625 3.375 2.4375 C7 3 7 3 9 4 C9 4.66 9 5.32 9 6 C6.15291519 7.18628534 3.30561425 8.3720018 0.45703125 9.5546875 C-1.8210829 10.5071194 -4.09468678 11.47042289 -6.36328125 12.4453125 C-7.94689453 13.12207031 -7.94689453 13.12207031 -9.5625 13.8125 C-10.53316406 14.23144531 -11.50382812 14.65039062 -12.50390625 15.08203125 C-15 16 -15 16 -18 16 C-18 16.66 -18 17.32 -18 18 C-19.43554025 18.50559908 -20.8735202 19.0042749 -22.3125 19.5 C-23.11300781 19.7784375 -23.91351563 20.056875 -24.73828125 20.34375 C-27 21 -27 21 -30 21 C-30 21.66 -30 22.32 -30 23 C-30.85722656 23.32613281 -31.71445313 23.65226562 -32.59765625 23.98828125 C-33.74105469 24.42527344 -34.88445312 24.86226562 -36.0625 25.3125 C-37.84527344 25.993125 -37.84527344 25.993125 -39.6640625 26.6875 C-42.13935932 27.66138727 -44.53413832 28.68150627 -46.9375 29.8125 C-51.11220543 31.43126333 -53.95465992 31.77381427 -58.19921875 30.16796875 C-60.49013337 29.15693701 -62.74410604 28.08647834 -65 27 C-66.66194738 26.32165413 -68.32598903 25.64800425 -70 25 C-70 24.34 -70 23.68 -70 23 C-68.06532058 22.16013916 -66.12714871 21.32831973 -64.1875 20.5 C-63.10855469 20.0359375 -62.02960937 19.571875 -60.91796875 19.09375 C-58 18 -58 18 -55 18 C-55 17.34 -55 16.68 -55 16 C-53.56445975 15.49440092 -52.1264798 14.9957251 -50.6875 14.5 C-49.88699219 14.2215625 -49.08648437 13.943125 -48.26171875 13.65625 C-46 13 -46 13 -43 13 C-43 12.34 -43 11.68 -43 11 C-21.8647541 2 -21.8647541 2 -17 2 C-17 1.34 -17 0.68 -17 0 C-11.52323433 -2.38730811 -5.44900996 -2.72450498 0 0 Z " fill="#938754" transform="translate(118,40)"/>
<path d="M0 0 C1.57183044 -0.01418472 1.57183044 -0.01418472 3.17541504 -0.02865601 C4.86459045 -0.01954697 4.86459045 -0.01954697 6.58789062 -0.01025391 C8.32975647 -0.01455917 8.32975647 -0.01455917 10.10681152 -0.01895142 C12.56128426 -0.02099234 15.01577325 -0.01546055 17.47021484 -0.00292969 C21.22986172 0.01312263 24.98843349 -0.0027784 28.74804688 -0.02197266 C31.13216383 -0.01999023 33.51628012 -0.01614657 35.90039062 -0.01025391 C37.02650757 -0.0163266 38.15262451 -0.02239929 39.31286621 -0.02865601 C40.36075317 -0.01919952 41.40864014 -0.00974304 42.48828125 0 C43.86916931 0.00358017 43.86916931 0.00358017 45.2779541 0.00723267 C48.23522992 0.46404198 49.61637516 1.30502369 51.74414062 3.38818359 C52.19831395 6.50251499 52.42419842 8.43638509 50.55363464 11.05439758 C48.07082603 12.88448674 46.42295546 12.74982305 43.35473633 12.72875977 C42.25382156 12.72853317 41.1529068 12.72830658 40.01863098 12.72807312 C38.83105698 12.71258926 37.64348297 12.69710541 36.41992188 12.68115234 C35.20338425 12.6769075 33.98684662 12.67266266 32.73344421 12.66828918 C28.84095292 12.6514721 24.94897592 12.61381318 21.05664062 12.57568359 C18.42058038 12.56064073 15.78451204 12.54695163 13.1484375 12.53466797 C6.68016253 12.50155859 0.21218831 12.45132864 -6.25585938 12.38818359 C-6.58585937 11.39818359 -6.91585937 10.40818359 -7.25585938 9.38818359 C-7.91585937 9.38818359 -8.57585937 9.38818359 -9.25585938 9.38818359 C-9.50585938 6.57568359 -9.50585938 6.57568359 -9.25585938 3.38818359 C-6.30221685 0.45585832 -4.08392092 0.01058821 0 0 Z " fill="#918552" transform="translate(132.255859375,102.61181640625)"/>
<path d="M0 0 C1.08807953 -0.00953201 2.17615906 -0.01906403 3.29721069 -0.02888489 C4.47739777 -0.02797348 5.65758484 -0.02706207 6.87353516 -0.02612305 C8.08200104 -0.03040817 9.29046692 -0.0346933 10.53555298 -0.03910828 C13.09612399 -0.04486058 15.65671135 -0.04534525 18.21728516 -0.04101562 C22.13944379 -0.03786042 26.06084514 -0.06128838 29.98291016 -0.08666992 C32.4672842 -0.08894325 34.95166028 -0.08964626 37.43603516 -0.08862305 C38.61217377 -0.09783279 39.78831238 -0.10704254 41.00009155 -0.11653137 C42.64166733 -0.10718819 42.64166733 -0.10718819 44.31640625 -0.09765625 C45.27856049 -0.09828568 46.24071472 -0.0989151 47.23202515 -0.0995636 C50.23880666 0.34073038 51.61192418 1.18139155 53.78759766 3.2746582 C54.35009766 5.7121582 54.35009766 5.7121582 53.78759766 8.2746582 C51.58915823 10.84619476 49.77056159 12.12043628 46.39746094 12.6496582 C43.36433382 12.80523051 40.35592585 12.82880333 37.31884766 12.8059082 C36.20578247 12.80973511 35.09271729 12.81356201 33.94592285 12.81750488 C31.59577529 12.82022334 29.24559744 12.81286691 26.89550781 12.79614258 C23.30025716 12.77473359 19.70700497 12.79594817 16.11181641 12.8215332 C13.82665575 12.81888992 11.54149634 12.81376493 9.25634766 12.8059082 C8.18227661 12.81400513 7.10820557 12.82210205 6.00158691 12.83044434 C1.45994172 12.77343929 -1.41301887 12.73529497 -5.40185547 10.43676758 C-7.21240234 8.2746582 -7.21240234 8.2746582 -7.64990234 5.1496582 C-6.8718867 0.03698396 -4.63060408 0.02221094 0 0 Z " fill="#928652" transform="translate(130.21240234375,131.725341796875)"/>
<path d="M0 0 C1.25472107 0.00136711 1.25472107 0.00136711 2.53479004 0.00276184 C3.39286255 -0.00152328 4.25093506 -0.00580841 5.13500977 -0.01022339 C6.9507153 -0.01597099 8.76644386 -0.01646379 10.58215332 -0.01213074 C13.36754403 -0.00896939 16.15187441 -0.03242869 18.93713379 -0.05778503 C20.69885119 -0.06005777 22.46057147 -0.06076164 24.22229004 -0.05973816 C25.05877075 -0.06894791 25.89525146 -0.07815765 26.75708008 -0.08764648 C29.10314941 -0.06877136 29.10314941 -0.06877136 32.87854004 0.30354309 C34.87854004 3.30354309 34.87854004 3.30354309 34.62854004 6.92854309 C34.38104004 8.04229309 34.13354004 9.15604309 33.87854004 10.30354309 C30.68110865 11.90225878 27.20794888 11.4877599 23.69494629 11.50666809 C22.47798317 11.5152182 22.47798317 11.5152182 21.23643494 11.52394104 C19.51908677 11.53339295 17.80172045 11.53992578 16.08435059 11.54377747 C13.45487955 11.55349196 10.82618721 11.58451627 8.19689941 11.61604309 C6.52958635 11.62257227 4.8622677 11.62782307 3.19494629 11.63166809 C2.01358849 11.65018829 2.01358849 11.65018829 0.80836487 11.66908264 C-4.60464174 11.64695312 -4.60464174 11.64695312 -7.1217041 9.97444153 C-8.67512038 7.37820685 -8.43505837 5.25136816 -8.12145996 2.30354309 C-5.49314485 -0.32477202 -3.57937701 0.04406941 0 0 Z " fill="#988C55" transform="translate(131.1214599609375,159.6964569091797)"/>
<path d="M0 0 C1.98 0.99 1.98 0.99 4 2 C3.34 2 2.68 2 2 2 C1.67 12.56 1.34 23.12 1 34 C2.65 34 4.3 34 6 34 C4.02 34.495 4.02 34.495 2 35 C1.67 47.87 1.34 60.74 1 74 C0.67 74 0.34 74 0 74 C0 49.58 0 25.16 0 0 Z " fill="#2A2A24" transform="translate(46,92)"/>
<path d="M0 0 C0.33 0 0.66 0 1 0 C1 3.63 1 7.26 1 11 C-3.455 10.01 -3.455 10.01 -8 9 C-4 8 -4 8 -1 9 C-0.67 6.03 -0.34 3.06 0 0 Z " fill="#34352E" transform="translate(95,176)"/>
</svg>
